<svg xmlns="http://www.w3.org/2000/svg" aria-hidden="true" style="position:absolute;width:0;height:0;overflow:hidden">
    <defs>
        <symbol id="Viber" viewBox="0 0 32 32">
            <path d="M32 16c0-8.837-7.163-16-16-16S0 7.163 0 16s7.163 16 16 16 16-7.163 16-16zm-6.369 5.093c.063.098.152.269.189.38.082.228.117.585.073.791-.063.3-.287.677-.894 1.493-.366.49-1.023 1.164-1.288 1.322-.628.367-1.162.345-2.39-.101-2.106-.765-4.137-1.885-6.095-3.356-3.748-2.815-6.477-6.36-8.305-10.8-.234-.566-.272-.75-.249-1.192.025-.538.193-.946.628-1.521.483-.636 1.614-1.546 2.217-1.781.572-.221 1.089-.164 1.494.164.224.187 1.348 1.566 1.8 2.211.341.49.812 1.249.992 1.597.234.459.275.914.123 1.36-.12.351-.224.468-.868.98a20.74 20.74 0 0 0-.654.541 1.561 1.561 0 0 0-.139.25c-.193.414-.076.98.385 1.907.357.721.808 1.36 1.472 2.084.562.617 1.295 1.24 1.866 1.588.736.449 1.693.791 2.22.794.227 0 .549-.092.714-.206.066-.044.316-.326.559-.626.603-.75.793-.917 1.153-1.018.335-.098.786.006 1.396.319 1.067.547 3.205 2.22 3.603 2.821z"/>
        </symbol>
        <symbol id="Mail" viewBox="0 0 32 32">
            <path d="M16 32c8.837 0 16-7.163 16-16S24.837 0 16 0 0 7.163 0 16s7.163 16 16 16zm.223-16.898c-1.25 0-7.69-3.652-7.69-3.652v-.57c0-.707.573-1.28 1.281-1.28h12.817c.708 0 1.282.573 1.282 1.28l-.01.64s-6.37 3.582-7.68 3.582zM8.544 13.44c-.001 0 6.429 3.422 7.679 3.422 1.37 0 7.68-3.422 7.68-3.422l.01 7.68a1.28 1.28 0 0 1-1.282 1.28H9.814a1.28 1.28 0 0 1-1.281-1.28l.01-7.68z"/>
        </symbol>
        <symbol id="LinkedIN_black" viewBox="0 0 32 32">
            <path d="M16 0C7.163 0 0 7.163 0 16s7.163 16 16 16 16-7.163 16-16S24.837 0 16 0zM7.681 13.252h3.626v10.894H7.681V13.252zm3.865-3.37c0 1.046-.787 1.883-2.052 1.883h-.023c-1.217 0-2.004-.837-2.004-1.883C7.467 8.814 8.278 8 9.518 8s2.004.814 2.028 1.882zm8.663 3.114c2.386 0 4.175 1.557 4.175 4.904v6.247h-3.626v-5.829c0-1.464-.525-2.463-1.837-2.463-1.002 0-1.598.673-1.86 1.324-.096.233-.119.558-.119.884v6.084h-3.626s.048-9.872 0-10.894h3.626v1.543c.481-.742 1.343-1.799 3.268-1.799z"/>
        </symbol>
        <symbol id="telegram" viewBox="0 0 32 32">
            <path d="M16 0C7.162 0 0 7.162 0 16s7.162 16 16 16 16-7.163 16-16S24.837 0 16 0zm7.863 10.969-2.625 12.369c-.181.881-.712 1.087-1.45.681l-4-2.956-1.919 1.869c-.225.219-.4.4-.8.4-.519 0-.431-.194-.606-.688L11.1 18.169l-3.956-1.231c-.856-.262-.862-.85.194-1.269l15.412-5.95c.7-.319 1.381.169 1.113 1.25z"/>
        </symbol>
    </defs>
</svg>